<svg height="512" width="512" xmlns="http://www.w3.org/2000/svg"><path d="M511.8 245.93l-81.98 85.54c-95.01 99.12-252.89 100.92-350.12 3.98L0 256c0-.33 0-.67.01-1 .17-45.85 12.4-88.84 33.67-126C77.8 51.93 160.84 0 256 0c28.52 0 55.96 4.66 81.58 13.28 0 23.6 16.51 43.99 39.59 48.9l59.73 12.7A256.453 256.453 0 01478.32 129a254.255 254.255 0 0128.15 73.86c2.96 13.98 4.77 28.36 5.33 43.07z" fill="#92eaff"/><path d="M511.8 245.93l-81.98 85.54c-95.01 99.12-252.89 100.92-350.12 3.98L0 256c0-46.22 12.25-89.57 33.68-127C77.8 206.07 160.84 258 256 258s178.2-51.93 222.32-129c19.87 34.7 31.84 74.48 33.48 116.93z" fill="#63dbfa"/><path d="M374.557 272.773h-8.733l.467-14.189.575-17.431h6.648l.575 17.431z" fill="#ec771b"/><path d="M374.557 272.773h-4.2v-31.62h3.157l.575 17.431zm-4.2-16.187v-15.434h-3.491l-.509 15.434z" fill="#c55732"/><path d="M374.023 256.586l-.509-15.434h-3.157v15.434z" fill="#a44e3e"/><path d="M383.921 246.7c-3.756 3.585-8.66 5.378-13.563 5.378s-9.806-1.792-13.563-5.378c-5.992-5.718-7.19-14.279-3.595-21.135 3.76-7.17 7.686-14.256 10.881-21.678l6.277-14.583 6.266 14.553c3.201 7.434 7.133 14.531 10.896 21.713 3.591 6.855 2.392 15.414-3.599 21.13z" fill="#43af3e"/><path d="M383.921 246.7c-3.756 3.585-8.66 5.378-13.563 5.378-2.326 0-4.652-1.792-6.435-5.378-2.882-5.796-3.427-14.513-1.635-21.414 2.492-9.597 4.7-19.482 6.746-29.498l1.324-6.484 6.266 14.553c3.201 7.434 7.133 14.531 10.896 21.713 3.591 6.855 2.392 15.414-3.599 21.13z" fill="#00a23e"/><path d="M383.921 246.7c-3.756 3.585-8.66 5.378-13.563 5.378v-62.774l6.266 14.553c3.201 7.434 7.133 14.531 10.896 21.713 3.591 6.855 2.392 15.414-3.599 21.13z" fill="#008839"/><path d="M474.569 252.113h-9.023l.483-14.66.594-18.009h6.869l.594 18.009z" fill="#ec771b"/><path d="M474.569 252.113h-4.339v-32.669h3.262l.594 18.009zm-4.339-17.297v-15.372h-3.607l-.507 15.372z" fill="#c55732"/><path d="M473.999 234.816l-.507-15.372h-3.262v15.372z" fill="#a44e3e"/><path d="M484.243 225.176c-3.88 3.704-8.947 5.556-14.013 5.556-5.065 0-10.132-1.852-14.013-5.556-6.191-5.908-7.429-14.753-3.715-21.836 3.884-7.407 7.941-14.729 11.242-22.398l6.485-15.066 6.474 15.036c3.307 7.68 7.369 15.013 11.257 22.433 3.712 7.082 2.473 15.925-3.717 21.831z" fill="#43af3e"/><path d="M484.243 225.176c-3.88 3.704-8.947 5.556-14.013 5.556-2.403 0-4.807-1.852-6.649-5.556-2.977-5.988-3.54-14.995-1.689-22.124 2.575-9.915 4.856-20.128 6.97-30.476l1.368-6.699 6.474 15.036c3.307 7.68 7.369 15.013 11.257 22.433 3.711 7.081 2.472 15.924-3.718 21.83z" fill="#00a23e"/><path d="M484.243 225.176c-3.88 3.704-8.947 5.556-14.013 5.556v-64.856l6.474 15.036c3.307 7.68 7.369 15.013 11.257 22.433 3.711 7.082 2.472 15.925-3.718 21.831z" fill="#008839"/><path d="M30.955 261.698h-9.001l.482-15.084.592-18.531h6.853l.593 18.531z" fill="#ec771b"/><path d="M30.955 261.698h-4.328v-33.615h3.254l.593 18.531zm-4.328-17.462v-16.153h-3.599l-.516 16.153z" fill="#c55732"/><path d="M30.398 244.236l-.517-16.153h-3.254v16.153z" fill="#a44e3e"/><path d="M40.607 233.981c-3.871 3.811-8.926 5.717-13.98 5.717s-10.108-1.906-13.98-5.717a19.24 19.24 0 01-3.706-22.468c3.875-7.622 7.923-15.155 11.216-23.046l6.47-15.502 6.459 15.471c3.299 7.902 7.352 15.448 11.231 23.082a19.239 19.239 0 01-3.71 22.463z" fill="#43af3e"/><path d="M40.607 233.981a19.869 19.869 0 01-13.98 5.717c-2.398 0-4.795-1.906-6.633-5.717-2.97-6.161-3.532-15.428-1.685-22.764 2.569-10.202 4.845-20.711 6.954-31.358l1.365-6.893 6.459 15.471c3.299 7.902 7.352 15.448 11.231 23.082a19.24 19.24 0 01-3.711 22.462z" fill="#00a23e"/><path d="M40.607 233.981a19.869 19.869 0 01-13.98 5.717v-66.732l6.459 15.471c3.299 7.902 7.352 15.448 11.231 23.082a19.237 19.237 0 01-3.71 22.462z" fill="#008839"/><path d="M101.22 278.431h-6.754l.361-11.319.445-13.904h5.142l.445 13.904z" fill="#ec771b"/><path d="M101.22 278.431h-3.248v-25.223h2.442l.445 13.904zm-3.248-12.745v-12.478h-2.7l-.399 12.478z" fill="#c55732"/><path d="M100.813 265.686l-.399-12.478h-2.442v12.478z" fill="#a44e3e"/><path d="M108.463 257.633a14.91 14.91 0 01-10.491 4.29c-3.792 0-7.585-1.43-10.491-4.29a14.438 14.438 0 01-2.781-16.859c2.908-5.719 5.945-11.372 8.416-17.293l4.855-11.633 4.847 11.609c2.476 5.93 5.517 11.591 8.427 17.32a14.433 14.433 0 01-2.782 16.856z" fill="#43af3e"/><path d="M108.463 257.633a14.91 14.91 0 01-10.491 4.29c-1.799 0-3.598-1.43-4.977-4.29-2.229-4.624-2.651-11.577-1.265-17.082 1.927-7.656 3.635-15.541 5.218-23.53l1.024-5.172 4.847 11.609c2.476 5.93 5.517 11.591 8.427 17.32a14.434 14.434 0 01-2.783 16.855z" fill="#00a23e"/><path d="M108.463 257.633a14.91 14.91 0 01-10.491 4.29v-50.074l4.847 11.609c2.476 5.93 5.517 11.591 8.427 17.32a14.434 14.434 0 01-2.783 16.855z" fill="#008839"/><path d="M373.938 173.083c.001-.099.007-.197.007-.296 0-18.14-14.706-32.846-32.846-32.846a32.72 32.72 0 00-12.192 2.348c-7.284-13.049-21.22-21.878-37.225-21.878-20.784 0-38.084 14.885-41.844 34.574a24.106 24.106 0 00-3.431-.248c-11.3 0-20.768 7.823-23.299 18.347h150.83z" fill="#fff"/><path d="M341.89 173.083c0-.057.004-.113.004-.17 0-10.431-8.456-18.887-18.887-18.887a18.82 18.82 0 00-7.011 1.35c-4.188-7.503-12.202-12.58-21.406-12.58-11.952 0-21.899 8.559-24.061 19.881a13.958 13.958 0 00-1.973-.143c-6.498 0-11.942 4.498-13.398 10.55h86.732z" fill="#dff7fd"/><path d="M512 256c0 3.58-.07 7.15-.22 10.69a256.578 256.578 0 01-4.08 36.23H251.66l44.25-17.22a365.248 365.248 0 01132.37-24.83 51.08 51.08 0 0116.54-11.05 51.004 51.004 0 0119.52-3.89h47.46c.1 2.51.16 5.02.19 7.55.01.84.01 1.68.01 2.52z" fill="#6cdc2d"/><path d="M511.78 266.69a256.578 256.578 0 01-4.08 36.23H318.87a365.152 365.152 0 01122.86-21.3 50.973 50.973 0 0136.05-14.93z" fill="#5dbf1d"/><path d="M195.16 302.92H4.3c-.2-1.06-.39-2.12-.57-3.18a250.59 250.59 0 01-3.07-25.31l-.03-.37C.21 268.1 0 262.07 0 256c0-.33 0-.67.01-1h16.3c5.69 0 11.25 1.13 16.41 3.26 5.15 2.13 9.88 5.27 13.91 9.29 38.08 0 75.83 7.09 111.32 20.89z" fill="#b6e337"/><path d="M127.27 302.92H4.3c-.2-1.06-.39-2.12-.57-3.18a250.59 250.59 0 01-3.07-25.31h1.63c5.31 0 10.52 1.05 15.34 3.05 4.82 1.99 9.25 4.93 13.01 8.69 32.95 0 65.63 5.68 96.63 16.75z" fill="#6cdc2d"/><path d="M421.09 451.65a256.207 256.207 0 01-50.52 33.34L265.46 302.92h6.9z" fill="#ff9f00"/><path d="M370.57 484.99a253.69 253.69 0 01-55.95 20.26L260.4 302.92h5.06z" fill="#ffc300"/><path d="M314.62 505.25c-18.58 4.36-37.94 6.69-57.83 6.75h-.76V302.92h4.37z" fill="#6cdc2d"/><path d="M239.71 302.92L90.94 451.68a257.506 257.506 0 01-24.05-23.13c-6.45-7.07-12.52-14.5-18.15-22.26l179.02-103.37z" fill="#159de4"/><path d="M227.76 302.92L48.74 406.29c-7-9.63-13.34-19.77-18.95-30.35-4.39-8.26-8.34-16.79-11.81-25.55l177.18-47.47z" fill="#65b2fe"/><path d="M195.16 302.92L17.98 350.39A251.854 251.854 0 014.3 302.92z" fill="#ff6378"/><path d="M463.28 406.26a255.951 255.951 0 01-18.17 22.29 255.627 255.627 0 01-24.02 23.1L272.36 302.92h11.95z" fill="#65b2fe"/><path d="M494.03 350.38a255.264 255.264 0 01-30.75 55.88L284.31 302.92h32.6z" fill="#159de4"/><path d="M414.038 347.431a6.56 6.56 0 11-13.12 0 6.56 6.56 0 0113.12 0z" fill="#148cc1"/><path d="M507.7 302.92a245.64 245.64 0 01-3.98 17.86c-2.63 10.12-5.88 20-9.69 29.6l-177.12-47.46z" fill="#fe3345"/><path d="M251.66 302.92l-54.22 202.35c-39.9-9.34-76.21-28.01-106.5-53.59l148.77-148.76z" fill="#f99568"/><path d="M251.66 302.92l-54.22 202.35A253.29 253.29 0 01141.48 485L246.6 302.92z" fill="#ed784a"/><path d="M256.03 302.92V512H256c-20.14 0-39.75-2.33-58.56-6.73l54.22-202.35z" fill="#b6e337"/><path d="M338.653 453.11a6.56 6.56 0 11-13.12 0 6.56 6.56 0 0113.12 0z" fill="#ff9f00"/><circle cx="125.591" cy="378.082" fill="#148cc1" r="3.28"/><path d="M475.012 331.908a6.56 6.56 0 11-13.12 0 6.56 6.56 0 0113.12 0z" fill="#de1263"/><path d="M381.884 378.22a6.56 6.56 0 11-13.12 0 6.56 6.56 0 0113.12 0zm-197.399-62.017a4.64 4.64 0 11-9.278 0 4.64 4.64 0 019.278 0z" fill="#159de4"/><path d="M296.459 489.662a6.56 6.56 0 11-13.12 0 6.56 6.56 0 0113.12 0z" fill="#00a23e"/><circle cx="338.653" cy="397.52" fill="#ec781b" r="6.56"/><circle cx="460.748" cy="365.1" fill="#148cc1" r="6.56"/><circle cx="170.614" cy="354.335" fill="#148cc1" r="6.56"/><path d="M410.968 401.748a6.56 6.56 0 11-13.12 0 6.56 6.56 0 0113.12 0z" fill="#159de4"/><path d="M325.533 486.409a6.56 6.56 0 11-13.12 0 6.56 6.56 0 0113.12 0z" fill="#ec781b"/><path d="M358.333 324.133a6.56 6.56 0 11-13.12 0 6.56 6.56 0 0113.12 0zm-256.044 84.175a6.56 6.56 0 11-13.12 0 6.56 6.56 0 0113.12 0z" fill="#148cc1"/><path d="M236.855 473.289a6.56 6.56 0 11-13.12 0 6.56 6.56 0 0113.12 0z" fill="#43af3e"/><path d="M314.872 406.495a4.747 4.747 0 11-9.495 0 4.747 4.747 0 019.495 0z" fill="#ec781b"/><path d="M288.086 441.803a4.747 4.747 0 11-9.495 0 4.747 4.747 0 019.495 0z" fill="#00a23e"/><path d="M304.362 342.684a4.747 4.747 0 11-9.495 0 4.747 4.747 0 019.495 0z" fill="#ec781b"/><path d="M351.773 356.351a4.747 4.747 0 11-9.493 0 4.747 4.747 0 019.493 0zm-198.919-22.629a4.747 4.747 0 11-9.493 0 4.747 4.747 0 019.493 0zm288.056 77.519a4.747 4.747 0 11-9.493 0 4.747 4.747 0 019.493 0zm-117.19-77.519a4.747 4.747 0 11-9.493 0 4.747 4.747 0 019.493 0zM47.317 356.351a4.747 4.747 0 11-9.493 0 4.747 4.747 0 019.493 0zm64.466-15.48a4.747 4.747 0 11-9.495 0 4.747 4.747 0 019.495 0z" fill="#159de4"/><circle cx="75.977" cy="368.241" fill="#159de4" r="7.888"/><path d="M266.857 356.351a4.747 4.747 0 11-9.493 0 4.747 4.747 0 019.493 0z" fill="#00a23e"/><circle cx="389.227" cy="446.55" fill="#ec781b" r="6.56"/><path d="M296.459 371.66a6.56 6.56 0 11-13.12 0 6.56 6.56 0 0113.12 0z" fill="#ff9f00"/><g fill="#de1263"><path d="M407.478 310.705a4.389 4.389 0 11-8.777-.001 4.389 4.389 0 018.777.001z"/><circle cx="377.772" cy="311.564" r="4.111"/><path d="M143.36 310.705a4.112 4.112 0 11-8.224 0 4.112 4.112 0 018.224 0z"/><circle cx="23.462" cy="334.805" r="6.139"/><path d="M39.879 310.705a4.112 4.112 0 11-8.224 0 4.112 4.112 0 018.224 0z"/><circle cx="72.2" cy="324.133" r="4.111"/><path d="M109.36 309.613a4.112 4.112 0 11-8.224 0 4.112 4.112 0 018.224 0z"/><circle cx="443.416" cy="316.388" r="4.111"/><circle cx="496.14" cy="312.091" r="4.111"/></g><path d="M245.258 413.055a6.56 6.56 0 11-13.12 0 6.56 6.56 0 0113.12 0z" fill="#43af3e"/><path d="M213.734 112.562c0 18.344-14.874 33.218-33.218 33.218-18.352 0-33.218-14.874-33.218-33.218 0-18.352 14.867-33.225 33.218-33.225 18.345-.001 33.218 14.873 33.218 33.225z" fill="#fff9bb"/><path d="M213.734 112.562c0 18.344-14.874 33.218-33.218 33.218V79.336c18.345 0 33.218 14.874 33.218 33.226z" fill="#ffeb98"/><path d="M134.427 177.338c0-.062.005-.124.005-.186 0-11.414-9.253-20.667-20.667-20.667-2.712 0-5.299.528-7.671 1.477-4.583-8.21-13.352-13.766-23.423-13.766-13.078 0-23.963 9.366-26.329 21.754a15.218 15.218 0 00-2.159-.156c-7.11 0-13.068 4.922-14.66 11.544z" fill="#fff"/><path d="M114.262 177.338c0-.036.003-.071.003-.107 0-6.564-5.321-11.884-11.884-11.884-1.559 0-3.047.303-4.411.849-2.635-4.721-7.678-7.916-13.469-7.916-7.52 0-13.779 5.385-15.14 12.509a8.767 8.767 0 00-1.241-.09c-4.089 0-7.514 2.83-8.43 6.638h54.572z" fill="#dff7fd"/><path d="M436.9 74.88H257.54c0-.13-.01-.26-.01-.39 0-23.71 19.22-42.93 42.93-42.93 5.63 0 11.01 1.09 15.94 3.07a55.901 55.901 0 0121.18-21.35c37.83 12.71 71.71 34.01 99.32 61.6z" fill="#fff"/><path d="M299.427 74.879c0-.075-.005-.148-.005-.223 0-13.635 11.053-24.688 24.688-24.688 3.239 0 6.33.63 9.164 1.764 5.475-9.808 15.949-16.444 27.979-16.444 15.622 0 28.624 11.188 31.45 25.986a18.118 18.118 0 012.578-.187c8.494 0 15.61 5.88 17.512 13.79H299.427z" fill="#dff7fd"/></svg>