<svg xmlns="http://www.w3.org/2000/svg" viewBox="0 0 122.88 72.42"><path d="M24.59 22.47h15.05v4.12h-9.41v3.07h8.72v3.93h-8.72v3.79h9.69v4.36H24.59V22.47zM15.29 0h92.29c4.21 0 8.03 1.72 10.8 4.49 2.77 2.77 4.49 6.6 4.49 10.8v41.83c0 4.2-1.72 8.02-4.5 10.8-2.77 2.77-6.6 4.5-10.8 4.5H15.29c-4.2 0-8.03-1.72-10.8-4.5A15.216 15.216 0 010 57.13V15.29c0-4.21 1.72-8.03 4.49-10.8C7.26 1.72 11.09 0 15.29 0zm-12 51.46c.57 2.14 1.71 4.06 3.24 5.59 2.25 2.25 5.35 3.65 8.77 3.65h92.3c.14 0 .27 0 .41-.01l.85-.06c2.91-.3 5.54-1.61 7.51-3.58 1.53-1.53 2.66-3.45 3.23-5.59V15.29c0-3.29-1.35-6.29-3.53-8.47-2.18-2.18-5.17-3.53-8.47-3.53H15.29c-3.3 0-6.3 1.35-8.47 3.53C4.64 9 3.29 12 3.29 15.29v36.17zm39.34-23.69h4.71v2.27c.7-.93 1.41-1.6 2.13-1.99.72-.4 1.59-.6 2.63-.6 1.4 0 2.49.44 3.28 1.32.79.88 1.18 2.24 1.18 4.08v8.88h-5.09v-7.68c0-.88-.15-1.5-.46-1.86-.31-.36-.73-.55-1.28-.55-.61 0-1.1.25-1.48.74-.38.49-.57 1.37-.57 2.64v6.71h-5.06V27.77h.01zm23.06-5.3v5.3h2.77v3.93h-2.77v4.94c0 .59.06.99.16 1.18.17.3.46.44.87.44.37 0 .89-.11 1.57-.34l.37 3.7c-1.25.29-2.42.44-3.5.44-1.26 0-2.19-.17-2.78-.51-.59-.34-1.03-.86-1.32-1.56-.28-.7-.43-1.82-.43-3.38V31.7h-1.86v-3.93h1.86v-2.56l5.06-2.74zm19.83 13.61H75.37c.09.86.31 1.5.66 1.92.49.61 1.13.91 1.92.91.5 0 .97-.13 1.42-.39.28-.17.57-.46.89-.87l4.98.48c-.76 1.4-1.68 2.41-2.76 3.01-1.08.61-2.62.91-4.64.91-1.75 0-3.12-.26-4.13-.78-1-.52-1.83-1.35-2.49-2.48-.66-1.14-.99-2.47-.99-4.01 0-2.18.66-3.95 1.98-5.3 1.32-1.35 3.15-2.03 5.47-2.03 1.89 0 3.38.31 4.47.91a6 6 0 012.5 2.63c.57 1.15.86 2.64.86 4.49v.6h.01zm-5.14-2.56c-.1-1.04-.36-1.78-.79-2.23-.43-.45-.99-.67-1.69-.67-.81 0-1.45.34-1.93 1.02-.31.42-.5 1.05-.59 1.89h5v-.01zm7.51-5.75h4.74v2.28c.46-.99.93-1.67 1.41-2.04.49-.37 1.08-.56 1.8-.56.75 0 1.57.25 2.45.74l-1.57 3.8c-.6-.26-1.07-.39-1.42-.39-.66 0-1.18.29-1.54.87-.52.82-.78 2.34-.78 4.58v4.69h-5.09V27.77z"/></svg>