<svg xmlns="http://www.w3.org/2000/svg" viewBox="0 0 106.51 122.88"><path d="M58.04 57.83c.72.39.98 1.29.59 2-.39.72-1.29.98-2 .59-5.05-2.76-9.14-6.05-11.38-10.6-2.05-4.16-2.51-9.28-.71-15.86-3.23.34-6.97 1.48-10.82 2.65-6.87 2.09-14.03 4.27-19.99 2.52-.69 1.36-1.21 2.83-1.59 4.39-.49 2.02-.74 4.19-.81 6.47-.06 1.97-.01 3.32.03 4.37.12 3.1.16 3.88-2.49 9.29l-4.66 9.52a.94.94 0 01-.12.22c-.78 1.19-1.13 2.29-1.15 3.21-.01.53.09.99.28 1.37.16.33.39.6.68.8.02.01.04.03.06.04.35.23.79.37 1.28.39h.12l5.45.32c.15-.06.32-.09.5-.1h.15l4.95.42a1.48 1.48 0 11-.25 2.95l-.08-.01-3.24-.19.01.81c.03 2.56.07 5.09.29 7.65 1.41.69 2.77 1.11 4.08 1.24 1.47.15 2.9-.07 4.29-.68.75-.33 1.62.01 1.95.76.33.75-.01 1.62-.76 1.95-1.86.82-3.79 1.11-5.77.92-1.17-.12-2.35-.41-3.55-.86.06.62.13 1.23.21 1.85.18 1.37.43 2.77.74 4.19.09.39.01.78-.19 1.1-1.09 2.18-1.63 4.02-1.73 5.54-.11 1.65.35 2.9 1.23 3.8.96.97 2.44 1.61 4.3 1.96 2.89.54 6.58.38 10.58-.34 3.8-.68 8.06-1.78 11.99-3.3 3.21-1.24 6.18-2.77 8.45-4.59 2.28-1.82 3.31-4.75 4.19-7.25.17-.49.34-.96.43-1.2l.25-.68c1.06-2.92 2.91-8 5.25-9.8.64-.5 1.57-.38 2.07.27.5.65.38 1.57-.27 2.07-1.66 1.28-3.32 5.84-4.28 8.47-.18.49-.17.47-.25.69-.19.51-.3.83-.42 1.16-1.01 2.87-2.19 6.24-5.13 8.59-2.51 2.01-5.75 3.68-9.23 5.03-.88.34-1.78.66-2.69.96.05 1.31.01 2.61-.12 3.92a30.82 30.82 0 01-.9 4.97 1.48 1.48 0 11-2.86-.76c.4-1.5.68-2.99.82-4.49.09-.9.13-1.82.12-2.74-2.36.66-4.71 1.19-6.92 1.59-4.35.78-8.4.95-11.65.34-2.44-.46-4.45-1.37-5.86-2.79-1.48-1.5-2.24-3.5-2.07-6.06.12-1.81.71-3.9 1.87-6.32-.27-1.27-.49-2.59-.67-3.95-.2-1.5-.33-3.02-.38-4.56v-.06a.761.761 0 01-.03-.21c-.27-2.82-.3-5.56-.34-8.34l.01-1.01-4.7-.28h-.04c-1.07-.04-2.02-.34-2.81-.86-.03-.02-.07-.04-.1-.07a5.066 5.066 0 01-1.67-1.94c-.39-.8-.6-1.72-.58-2.74.03-1.43.52-3.04 1.58-4.69l4.64-9.49c2.32-4.73 2.29-5.37 2.19-7.88-.04-1.09-.1-2.49-.03-4.57.08-2.48.36-4.85.89-7.07.41-1.7.97-3.31 1.71-4.82l-8.8-3.84a1.47 1.47 0 01-.6-2.22C21.61 4.66 44.2-2.86 63.3.91c11.15 2.2 21.08 8.26 28.6 16.48 7.51 8.22 12.63 18.61 14.14 29.49 2.49 17.88-4.7 37.03-26.82 50-.25.15-.53.21-.8.2 0 2.88.17 5.67.5 8.37.63 5.13 1.83 9.93 3.53 14.45.29.76-.1 1.61-.86 1.9-.76.29-1.61-.1-1.9-.86a64.92 64.92 0 01-3.7-15.13c-.65-5.34-.7-11.01-.08-17.05.08-.81.81-1.4 1.62-1.32.81.08 1.4.81 1.32 1.62-.17 1.63-.29 3.24-.35 4.82 20.31-12.25 26.93-30.02 24.62-46.6-1.43-10.28-6.27-20.12-13.38-27.9-7.11-7.78-16.48-13.5-27-15.57C45.01.32 24.01 7.23 5.08 32.21l8.49 3.7c.09.03.17.07.26.12.02.01.04.03.06.04 5.21 1.91 12.25-.24 18.99-2.29 4.84-1.47 9.53-2.9 13.59-2.88a1.474 1.474 0 011.51 1.94c-2.23 6.77-1.98 11.78-.07 15.67 1.92 3.93 5.58 6.84 10.13 9.32zm-32.16 2.7c-1.45 0-2.62 1.17-2.62 2.62 0 1.45 1.17 2.62 2.62 2.62 1.45 0 2.62-1.17 2.62-2.62 0-1.45-1.17-2.62-2.62-2.62zm42.45 5.81c.15.8-.38 1.57-1.19 1.72-.8.15-1.57-.38-1.72-1.19a7.08 7.08 0 01.13-3.19c.39-1.38 1.2-2.57 2.26-3.47a7.965 7.965 0 013.71-1.74c1.15-.21 2.37-.17 3.55.16 3.2.9 4.56 2.51 4.85 4.55.26 1.82-.46 3.81-1.46 5.9-.89 1.87-4.31 9.02-7.69 13.37-4.53 5.85-8.94 7.96-9.62-4.51-.04-.81.59-1.51 1.4-1.55.81-.04 1.51.59 1.55 1.4.34 6.22 2.31 5.46 4.33 2.85 3.18-4.1 6.49-11.01 7.35-12.83.78-1.65 1.36-3.14 1.21-4.24-.12-.86-.88-1.59-2.72-2.11-.74-.21-1.51-.23-2.22-.1-.87.16-1.68.54-2.33 1.1a4.13 4.13 0 00-1.33 2.02c-.15.57-.18 1.2-.06 1.86zm-35.02-8.89a1.474 1.474 0 11-1.37 2.61c-1.84-.96-3.67-1.53-5.48-1.57h-.01c-1.78-.04-3.57.43-5.4 1.53a1.478 1.478 0 01-1.53-2.53c2.33-1.4 4.66-2 6.99-1.95h.01c2.31.06 4.56.75 6.79 1.91z"/></svg>