<svg xmlns="http://www.w3.org/2000/svg" width="122.879" height="122.785"><path d="M29.789 59.399c3.635 6.556 7.821 12.852 13.274 18.597 5.452 5.777 12.236 11.035 21.031 15.515.649.324 1.266.324 1.817.097.844-.324 1.688-1.006 2.532-1.85.649-.649 1.46-1.688 2.305-2.824 3.375-4.447 7.563-9.964 13.469-7.205.13.064.228.13.357.194l19.7 11.327c.065.032.131.098.195.13 2.597 1.785 3.667 4.544 3.699 7.66 0 3.181-1.168 6.75-2.888 9.769-2.272 3.992-5.615 6.621-9.478 8.374-3.667 1.688-7.757 2.597-11.685 3.181-6.166.908-11.943.324-17.851-1.493-5.777-1.784-11.587-4.738-17.948-8.665l-.454-.293c-2.921-1.817-6.069-3.765-9.152-6.068-11.328-8.537-22.849-20.87-30.347-34.437C2.068 60.016-1.372 47.715.511 35.998c1.039-6.426 3.797-12.268 8.601-16.13 4.187-3.375 9.834-5.226 17.136-4.576.844.064 1.59.552 1.98 1.265l12.625 21.356c1.851 2.402 2.077 4.771 1.071 7.14-.844 1.948-2.531 3.733-4.836 5.42-.681.584-1.492 1.168-2.336 1.785-2.824 2.045-6.037 4.414-4.934 7.206l-.029-.065zM107.916 18a4.696 4.696 0 110 9.392 4.696 4.696 0 010-9.392zm-32.219-.017a4.706 4.706 0 11.001 9.413 4.706 4.706 0 01-.001-9.413zm16.687 0a4.706 4.706 0 11.001 9.413 4.706 4.706 0 01-.001-9.413zM73.012 0c-3.518 0-6.527 1.238-9.031 3.714s-3.714 5.486-3.714 9.032v22.368c0 3.545 1.237 6.555 3.714 9.032 2.476 2.476 5.486 3.713 9.031 3.713h10.472c-.731 2.813-1.632 5.486-2.757 7.99-1.098 2.533-2.982 4.952-5.571 7.259 4.98-1.294 9.397-3.235 13.308-5.796a39.098 39.098 0 0010.045-9.454h11.626c3.518 0 6.528-1.266 9.032-3.713 2.504-2.477 3.713-5.487 3.713-9.032V12.746c0-3.518-1.237-6.528-3.713-9.032C116.689 1.21 113.68 0 110.134 0H73.012z"/></svg>